<?xml version="1.0" encoding="UTF-8"?>
<!DOCTYPE svg PUBLIC "-//W3C//DTD SVG 1.1//EN" "http://www.w3.org/Graphics/SVG/1.1/DTD/svg11.dtd">
<svg version="1.1" xmlns="http://www.w3.org/2000/svg" xmlns:xlink="http://www.w3.org/1999/xlink" x="0px" y="0px" width="284" height="144" viewBox="0, 0, 284, 144">
  <g id="Layer 1">
    <path d="M256.788,55.097 L258.648,55.097 C259.622,55.097 260.25,54.61 260.25,53.855 C260.25,53.09 259.676,52.653 258.675,52.653 L256.788,52.653 L256.788,55.097 z M260.321,57.96 L258.597,55.645 L256.788,55.6 L256.788,57.96 L256.245,57.96 L256.245,52.144 L258.699,52.144 C259.934,52.144 260.796,52.832 260.796,53.821 C260.796,54.659 260.27,55.261 259.353,55.475 L259.178,55.515 L261.067,57.96 L260.321,57.96" fill="#000109"/>
    <path d="M258.61,49.067 C255.353,49.067 252.7,51.75 252.7,55.049 C252.7,58.422 255.296,61.036 258.61,61.036 C261.866,61.036 264.517,58.351 264.517,55.049 C264.517,51.677 261.923,49.067 258.61,49.067 z M258.61,61.57 C255.034,61.57 252.125,58.659 252.125,55.084 C252.125,51.456 255.034,48.533 258.61,48.533 C262.185,48.533 265.094,51.44 265.094,55.015 C265.094,58.646 262.185,61.57 258.61,61.57" fill="#000109"/>
    <path d="M185.328,112.833 L188.061,112.833 L261.835,18.843 L259.112,18.843 L185.328,112.833" fill="#FBCE20"/>
    <path d="M280.739,0.682 L283.465,0.687 L274.567,12.021 L274.586,12.021 L171.037,143.94 L168.306,143.94 L191.998,113.762 L191.989,113.762 L200.89,102.42 L200.873,102.42 z" fill="#FBCE20"/>
    <path d="M245.268,55.255 L248.013,55.255 L204.517,110.665 L204.522,110.665 L178.411,143.94 L175.677,143.94 C202.333,109.983 191.477,123.826 208.259,102.42 L208.247,102.42 z" fill="#FBCE20"/>
    <path d="M13.164,48.534 C19.921,48.534 24.353,52.205 24.353,57.443 L24.353,57.536 C24.353,62.772 20.457,65.775 15.173,66.486 L25.519,79.878 L22.562,79.878 L12.581,66.893 L2.327,66.893 L2.327,79.878 L0.06,79.878 L0.06,48.534 z M2.327,50.684 L2.327,64.786 L12.893,64.786 C18.128,64.786 22.022,62.147 22.022,57.618 C22.089,53.903 19.405,51.639 15.967,50.955 C14.682,50.7 14.182,50.718 13.025,50.684 z" fill="#000109"/>
    <path d="M31.325,79.878 L31.325,48.534 L53.627,48.534 L53.627,50.684 L33.655,50.684 L33.655,63 L51.609,63 L51.609,65.149 L33.655,65.149 L33.655,77.731 L53.85,77.731 L53.85,79.878 L31.325,79.878" fill="#000109"/>
    <path d="M73.195,80.412 C64.236,80.412 57.611,73.297 57.611,64.295 L57.611,64.201 C57.611,55.344 64.236,48 73.279,48 C78.882,48 82.237,50.057 85.461,53.008 L83.803,54.719 C81.071,52.073 77.941,50.098 73.239,50.098 C65.717,50.098 60.033,56.243 60.033,64.117 L60.033,64.201 C60.033,72.127 65.804,78.313 73.279,78.313 C77.804,78.313 80.893,76.561 84.073,73.43 L85.639,74.954 C82.326,78.218 78.747,80.412 73.195,80.412" fill="#000109"/>
    <path d="M104.709,80.838 C95.095,80.838 88.788,73.177 88.788,64.506 L88.788,64.413 C88.788,55.758 95.189,48.003 104.799,48.003 C114.414,48.003 120.72,55.663 120.72,64.331 C120.765,64.372 120.765,64.372 120.72,64.413 C120.72,73.082 114.33,80.838 104.709,80.838 M118.272,64.413 C118.272,56.575 112.556,50.133 104.709,50.133 C96.866,50.133 91.241,56.483 91.241,64.331 L91.241,64.413 C91.241,72.264 96.95,78.707 104.799,78.707 C112.651,78.707 118.272,72.356 118.272,64.506 L118.272,64.413" fill="#000109"/>
    <path d="M150.968,79.878 L128.896,52.026 L128.896,79.878 L126.654,79.878 L126.654,48.534 L128.845,48.534 L150.468,75.799 L150.468,48.534 L152.71,48.534 L152.71,79.878 L150.968,79.878" fill="#000109"/>
    <path d="M185.346,79.878 L163.275,52.026 L163.275,79.878 L161.035,79.878 L161.035,48.534 L163.233,48.534 L184.854,75.799 L184.854,48.534 L187.095,48.534 L187.095,79.878 L185.346,79.878" fill="#000109"/>
    <path d="M195.421,48.534 L197.747,48.534 L197.747,79.879 L195.421,79.879 z" fill="#000109"/>
    <path d="M218.959,63.983 L231.074,48.553 L228.337,48.553 L217.61,62.225 L206.83,48.567 L204.096,48.573 L216.244,63.963 L216.227,63.983 L203.761,79.875 L206.489,79.875 L217.595,65.721 L228.699,79.875 L231.435,79.875 L218.959,63.983" fill="#000109"/>
  </g>
  <defs/>
</svg>
